<svg width="136" height="25" viewBox="0 0 136 25" fill="none" xmlns="http://www.w3.org/2000/svg">
<path d="M10.9281 4.09314L8.48696 9.04266L3.02529 9.83892C2.04585 9.98098 1.65333 11.1885 2.36361 11.88L6.315 15.7305L5.38043 21.1697C5.2122 22.1529 6.24771 22.8894 7.115 22.4296L12.001 19.8613L16.8869 22.4296C17.7542 22.8856 18.7897 22.1529 18.6215 21.1697L17.6869 15.7305L21.6383 11.88C22.3486 11.1885 21.9561 9.98098 20.9766 9.83892L15.515 9.04266L13.0739 4.09314C12.6365 3.2109 11.3692 3.19968 10.9281 4.09314Z" fill="#A020F0"/>
<path d="M38.9281 4.09314L36.4869 9.04266L31.0253 9.83892C30.0458 9.98098 29.6533 11.1885 30.3636 11.88L34.315 15.7305L33.3804 21.1697C33.2122 22.1529 34.2477 22.8894 35.115 22.4296L40.001 19.8613L44.8869 22.4296C45.7542 22.8856 46.7897 22.1529 46.6215 21.1697L45.6869 15.7305L49.6383 11.88C50.3486 11.1885 49.9561 9.98098 48.9766 9.83892L43.515 9.04266L41.0739 4.09314C40.6365 3.2109 39.3692 3.19968 38.9281 4.09314Z" fill="#A020F0"/>
<path d="M66.9281 4.09314L64.4869 9.04266L59.0253 9.83892C58.0458 9.98098 57.6533 11.1885 58.3636 11.88L62.315 15.7305L61.3804 21.1697C61.2122 22.1529 62.2477 22.8894 63.115 22.4296L68.001 19.8613L72.8869 22.4296C73.7542 22.8856 74.7897 22.1529 74.6215 21.1697L73.6869 15.7305L77.6383 11.88C78.3486 11.1885 77.9561 9.98098 76.9766 9.83892L71.515 9.04266L69.0739 4.09314C68.6365 3.2109 67.3692 3.19968 66.9281 4.09314Z" fill="#A020F0"/>
<path d="M94.9281 4.09314L92.4869 9.04266L87.0253 9.83892C86.0458 9.98098 85.6533 11.1885 86.3636 11.88L90.315 15.7305L89.3804 21.1697C89.2122 22.1529 90.2477 22.8894 91.115 22.4296L96.001 19.8613L100.887 22.4296C101.754 22.8856 102.79 22.1529 102.621 21.1697L101.687 15.7305L105.638 11.88C106.349 11.1885 105.956 9.98098 104.977 9.83892L99.515 9.04266L97.0739 4.09314C96.6365 3.2109 95.3692 3.19968 94.9281 4.09314Z" fill="#A020F0"/>
<path d="M122.928 4.09314L120.487 9.04266L115.025 9.83892C114.046 9.98098 113.653 11.1885 114.363 11.88L118.315 15.7305L117.38 21.1697C117.212 22.1529 118.248 22.8894 119.115 22.4296L124.001 19.8613L128.887 22.4296C129.754 22.8856 130.79 22.1529 130.621 21.1697L129.687 15.7305L133.638 11.88C134.349 11.1885 133.956 9.98098 132.977 9.83892L127.515 9.04266L125.074 4.09314C124.636 3.2109 123.369 3.19968 122.928 4.09314Z" fill="#A020F0"/>
</svg>
